<?xml version="1.0" encoding="UTF-8"?>
<svg id="Layer_2" data-name="Layer 2" xmlns="http://www.w3.org/2000/svg" viewBox="0 0 7392.83 7200">
  <defs>
    <style>
      .cls-1 {
        fill: #950000;
      }

      .cls-2 {
        fill: #ab5c00;
      }

      .cls-3 {
        fill: #fad6b9;
      }

      .cls-4 {
        fill: #ecb277;
      }
    </style>
  </defs>
  <path class="cls-3" d="M2038.9,3143.36c157.76,303.1,269.07,640.23,480.18,909.75,252.05,189.96,478.33,460.86,817.31,482.93,443.38,51.05,784.65-282.4,1100.63-539.96,1.38,28.06,3.22,84.63,4.14,112.68,23.92-66.69,42.31-136.14,78.19-197.77,209.73-308.16,319.2-668.75,453.5-1013.24,101.65-334.37,221.69-724.86,55.65-1056.47-11.04,31.28-33.12,93.37-44.16,124.64-113.14-338.97-91.99-716.58-267.68-1034.86-104.41-176.16-293.44-334.37-510.07-310.46-262.17,27.6-514.67,138.44-782.35,107.63-277.8-.46-542.27-155.46-821.45-92.45-174.31,35.41-314.6,163.74-398.3,315.98-191.79,337.59-209.27,734.06-314.13,1100.17-10.58-101.19-19.32-202.83-26.68-304.02-205.59,456.26-30.36,971.39,175.23,1395.45Z"/>
  <path class="cls-3" d="M3514.38,4984.95c-155,26.68-305.86-46.91-443.84-108.09-232.73-105.78-357.83-340.81-486.15-547.78-16.56,14.26-48.75,42.77-64.85,57.03-82.33,291.6,43.23,623.68,241.47,846.74,117.74,117.28,249.29,264.46,431.42,255.27,224.91,5.06,452.58,12.42,675.19-25.3,116.36-56.11,198.69-164.66,289.76-254.35,258.48-261.7,332.53-662.31,266.76-1014.62-190.41,364.73-512.83,668.29-909.75,791.09Z"/>
  <path class="cls-4" d="M3336.38,4536.05c-338.97-22.08-565.26-292.98-817.31-482.93,1.38,110.85,1.38,221.69.46,332.99,16.1-14.26,48.29-42.77,64.85-57.03,128.32,206.97,253.42,442,486.15,547.78,137.98,61.17,288.84,134.76,443.84,108.09,396.92-122.8,719.34-426.36,909.75-791.09,4.14-21.16,12.88-63.93,17.02-85.09-.92-28.05-2.76-84.63-4.14-112.68-315.97,257.56-657.25,591.02-1100.63,539.96Z"/>
  <path class="cls-1" d="M2580.24,5526.29c-130.62-200.99-237.79-418.08-390.49-603.44-515.59,189.49-1053.71,335.29-1540.79,592.4,643.45,12.42,1287.36,10.58,1931.27,11.04Z"/>
  <path class="cls-1" d="M4338.58,5495.02c562.96-6.44,1126.85,17.94,1688.89-11.5-436.02-243.31-918.49-393.71-1380.27-580.9-89.23,204.21-193.63,401.52-308.62,592.4Z"/>
  <path class="cls-1" d="M256.65,6346.36c1394.53,27.14,2789.52,8.74,4184.04-5.06,651.27-13.34,1303.46.46,1954.73-23-28.98-172.48-108.54-328.86-181.68-485.23-1932.19-23-3864.39-21.62-5796.58-7.82-46.45,175.7-103.48,348.63-160.52,521.11Z"/>
  <path class="cls-1" d="M178.91,6660.04c-60.25,179.84-119.58,359.67-178.91,539.96,2235.75-7.36,4471.96-13.34,6707.25-9.2,0-195.93-99.35-368.41-176.62-542.26-2117.09-2.76-4234.63,5.98-6351.72,11.5Z"/>
  <path class="cls-2" d="M2204.47,951.77c83.71-152.24,223.99-280.56,398.3-315.98,279.18-63.01,543.65,91.99,821.45,92.45,267.68,30.81,520.19-80.03,782.35-107.63,216.63-23.92,405.66,134.3,510.07,310.46,175.69,318.27,154.54,695.88,267.68,1034.86,11.04-31.28,33.12-93.37,44.16-124.64,37.25-373.01,51.51-761.2-62.09-1123.16-82.33-271.82-332.08-450.28-584.58-551.47-505.47-198.23-1074.41-210.65-1598.74-84.63-333.91,78.19-670.59,264.92-816.85,589.64-166.04,334.83-108.54,716.58-102.56,1076.25,7.36,101.19,16.1,202.83,26.68,304.02,104.87-366.11,122.34-762.58,314.13-1100.17Z"/>
</svg>