<?xml version="1.0" encoding="UTF-8"?>
<svg id="Layer_4" data-name="Layer 4" xmlns="http://www.w3.org/2000/svg" viewBox="0 0 7392.83 7200">
  <defs>
    <style>
      .cls-1 {
        fill: #953f07;
      }

      .cls-2 {
        fill: #fad6b9;
      }

      .cls-3 {
        fill: #ecb277;
      }

      .cls-4 {
        fill: #efece8;
      }
    </style>
  </defs>
  <path class="cls-1" d="M2688.12,991.09c356.5,338.39,800.02,599.47,1292.15,671.47,203.21,41.97,412.16,30.04,616.69,59.2,148.43,21.64,211.61,175.82,286.7,285.82,128.11-513.33,36.22-1095.12-311.44-1504.64C4195.84,40.42,3497.86-136.72,2953.61,114.2c-182.89,51.24-382.12,27.83-557.5,108.68-230.6,94.98-395.82,304.81-480.19,534.97-136.95,369.31-137.39,773.96-91.44,1160.94,353.41-241.2,642.32-563.24,863.64-927.69Z"/>
  <path class="cls-2" d="M3404.65,4164.26c259.32-4.86,475.34-170.08,727.58-207.63,327.78-614.49,539.83-1281.55,756.29-1940.66l-4.86-8.39c-75.1-110-138.27-264.17-286.7-285.82-204.54-29.16-413.49-17.23-616.69-59.2-492.13-72.01-935.65-333.09-1292.15-671.47-221.32,364.45-510.24,686.5-863.64,927.69,156.83,548.23,325.58,1095.57,559.27,1616.85,58.31,117.51,110.88,246.06,209.84,335.74,251.36,137.39,510.24,316.3,811.07,292.89Z"/>
  <path class="cls-2" d="M3542.04,5285c399.35-4.42,812.84-28.27,1181.71-196.14-160.8-133.85-364.45-227.06-477.1-410.4-104.26-211.16-63.61-457.22-141.36-675.89-143.57,194.82-360.03,353.85-608.75,365.78-339.27,30.04-657.78-155.5-877.78-400.68-41.96,238.55-17.23,487.26-85.26,721.39-125.9,158.59-306.58,258.87-470.92,372.84,115.74,51.69,233.25,101.16,360.04,119.72,369.75,60.96,743.48,110.88,1119.42,103.37Z"/>
  <path class="cls-3" d="M3496.54,4368.35c248.71-11.93,465.18-170.96,608.75-365.78l26.95-45.94c-252.24,37.55-468.27,202.76-727.58,207.63-300.84,23.41-559.71-155.5-811.07-292.89,6.63,24.3,19,72.01,25.18,96.31,220,245.17,538.51,430.71,877.78,400.68Z"/>
  <path class="cls-4" d="M5143.86,5239.06c-140.48-46.38-274.33-131.64-420.12-150.2-368.87,167.87-782.36,191.72-1181.71,196.14-375.94,7.51-749.67-42.41-1119.42-103.37-126.79-18.55-244.3-68.03-360.04-119.72-53.9-3.09-104.7,38.88-154.61,57.43-266.83,140.48-568.99,188.19-842.44,311.88-113.53,56.54-265.06,74.66-325.14,200.56-216.9,361.36-346.78,766.46-482.84,1162.71-49.92,131.21-99.84,262.41-129.88,399.35,355.62,3.53,711.68-11.93,1067.29,2.65,294.65,15.46,588.87-26.51,883.97-6.18,575.17,29.6,1150.34-22.97,1725.51,2.21,309.23,21.65,618.02-35.78,926.81-7.07,344.57,32.25,688.7-46.38,1033.28-11.93,271.68,23.42,542.92-20.76,815.05-22.53-180.68-481.96-356.06-970.11-614.93-1417.61-181.57-285.37-528.35-370.64-820.79-494.33Z"/>
</svg>