<?xml version="1.0" encoding="UTF-8"?>
<svg id="Layer_3" data-name="Layer 3" xmlns="http://www.w3.org/2000/svg" viewBox="0 0 7392.83 7200">
  <defs>
    <style>
      .cls-1 {
        fill: #e38af8;
      }

      .cls-2 {
        fill: #fbc193;
      }

      .cls-3 {
        fill: #702d0c;
      }

      .cls-4 {
        fill: #fad6b9;
      }

      .cls-5 {
        fill: #ecb277;
      }
    </style>
  </defs>
  <path class="cls-3" d="M2249.92,6191.39c73.84,173.75,104.25,361.4,130.31,547.31,79.93-145.95,168.97-286.69,260.19-425.69,75.58-387.03-187.21-728.01-203.29-1107.22-5.21-156.37-31.71-330.56,65.59-466.52,106.85-155.94,135.52-345.33,145.95-529.5,7.82-115.55,17.38-230.65,28.67-345.76-323.61-307.1-624.2-655.9-792.73-1073.77-79.49-221.09-153.77-469.56-78.62-701.51,95.99-268.88,421.77-338.81,552.09-582.06,128.14-230.65,200.68-486.06,285.82-734.53,54.3,323.61,114.67,647.22,123.8,976.47,432.63-12.16,867.88-51.26,1299.21,4.34,198.94,32.14,422.21,77.75,557.74,241.51,126.84,157.68,64.72,371.82,23.89,549.48-129.01,536.88-511.25,959.96-897.41,1333.09,9.12,124.66,17.38,249.76,28.24,374.86,15.2,148.99,31.27,303.63,106.85,436.55,208.93,385.29,482.15,748.86,569.03,1187.58,12.6,13.47,38.22,40.4,50.82,53.43,116.85-215.45,159.41-459.57,215.89-695.43,165.06-851.8,309.71-1714.04,304.5-2584.52-4.78-552.52-67.33-1111.13-248.03-1636.28-127.7-374-396.15-709.76-765.36-866.57-489.1-212.84-1044.23-161.59-1552.01-49.95-386.16,76.02-624.63,431.77-811.85,747.56-383.12,756.68-519.51,1632.37-419.17,2472.45,70.81,628.1,373.13,1193.22,585.53,1779.63,24.76,138.57,35.18,281.04,84.7,414.39,84.27,242.38,253.24,443.49,349.67,680.66Z"/>
  <path class="cls-4" d="M3751.11,3877.05c386.16-373.13,768.41-796.21,897.41-1333.09,40.83-177.66,102.95-391.8-23.89-549.48-135.52-163.76-358.79-209.37-557.74-241.51-431.33-55.6-866.57-16.51-1299.21-4.34-9.12-329.25-69.5-652.86-123.8-976.47-85.14,248.46-157.68,503.87-285.82,734.53-130.31,243.25-456.09,313.18-552.09,582.06-75.15,231.96-.87,480.42,78.62,701.51,168.53,417.87,469.12,766.67,792.73,1073.77,164.63,86.44,331.43,185.48,517.34,216.75,197.2-24.76,381.81-111.63,556.43-203.72Z"/>
  <path class="cls-2" d="M3779.35,4251.91c-215.88,83.84-443.5,161.15-678.06,137.7-166.36-11.73-311.44-100.34-452.62-179.83-10.42,184.17-39.09,373.56-145.95,529.5-97.3,135.96-70.81,310.14-65.59,466.52,16.07,379.21,278.87,720.19,203.29,1107.22,639.83,56.03,1223.19-248.03,1814.81-436.98-86.88-438.72-360.1-802.29-569.03-1187.58-75.58-132.92-91.65-287.55-106.85-436.55Z"/>
  <path class="cls-5" d="M3779.35,4251.91c-10.86-125.1-19.11-250.2-28.24-374.86-174.62,92.09-359.23,178.96-556.43,203.72-185.91-31.27-352.71-130.31-517.34-216.75-11.29,115.11-20.85,230.22-28.67,345.76,141.17,79.49,286.25,168.1,452.62,179.83,234.56,23.46,462.18-53.86,678.06-137.7Z"/>
  <path class="cls-1" d="M1032.38,5477.28c-250.64,348.8-407.01,757.98-527.33,1168.46-46.04,181.57-105.99,364.87-95.99,554.26,1883-7.38,3766.01-3.47,5649.02-3.04-93.82-495.19-216.75-994.28-458.26-1440.38-36.92-61.68-66.03-136.39-136.83-165.06-245.85-122.06-513.86-200.25-741.04-357.49-56.47,235.86-99.04,479.98-215.89,695.43-12.6-13.03-38.22-39.96-50.82-53.43-591.62,188.95-1174.98,493.01-1814.81,436.98-91.22,139-180.26,279.74-260.19,425.69-26.06-185.91-56.46-373.56-130.31-547.31-96.43-237.17-265.4-438.28-349.67-680.66-49.52-133.35-59.94-275.83-84.7-414.39-205.02,221.97-535.15,231.09-783.17,380.94Z"/>
</svg>